<svg width="100" height="100" viewBox="0 0 100 100" fill="none" xmlns="http://www.w3.org/2000/svg">
<path d="M84.4689 92.7212C88.2602 90.612 91.6859 87.9072 94.453 84.4515C101.199 76.027 102.365 62.2941 94.7451 55.2146C89.8875 50.7007 82.7053 49.6902 77.5939 45.4842C67.3315 37.0372 67.5983 17.8541 55.2779 13.0071C48.5759 10.3696 40.9733 13.3919 34.3083 16.5628C31.4942 17.9021 28.6434 19.3288 25.8538 20.8804C15.8593 26.439 6.61645 33.6136 2.38878 44.207C-1.6003 54.2028 -0.247069 65.658 3.89356 75.3154C7.08101 82.7524 12.0248 89.5612 18.8677 93.5476C27.2685 98.441 33.1788 94.291 41.4528 95.2846C50.551 96.3769 56.6117 100.278 66.7241 98.5764C72.815 97.5526 79.0201 95.7519 84.4689 92.7212Z" fill="#F0F7EA"/>
<path d="M57.5545 93.5477C57.5545 93.5477 58.0016 95.3847 59.1508 95.891C60.3001 96.3973 62.8537 96.6505 63.6847 97.1591C64.5156 97.6677 64.9626 99.1239 64.9626 99.1239H51.3612L52.0002 94.054L51.8083 93.4199L57.5545 93.5477Z" fill="#303F4E" stroke="white" stroke-width="0.891892" stroke-miterlimit="10"/>
<path d="M65.4145 31.8157L67.7926 31.0562C67.7926 31.0562 67.7083 31.4766 68.3028 31.6879C68.8973 31.8993 71.4884 31.1816 71.6593 29.4119C71.8302 27.6422 71.8302 26.546 71.4042 26.0397C70.9805 25.5334 68.3871 25.6611 68.3871 25.6611C68.3871 25.6611 68.3871 22.837 67.0693 23.2156C65.7515 23.5941 66.0933 26.2929 66.0933 26.2929L64.7333 27.684L65.4121 31.8157H65.4145Z" fill="#A8B3BB"/>
<path d="M42.7756 93.9539C42.7756 93.9539 43.2227 95.791 44.3719 96.2973C45.5212 96.8036 48.0748 97.0567 48.9057 97.5653C49.7367 98.0716 50.1837 99.5302 50.1837 99.5302H36.5823L37.2213 94.4602L37.0293 93.8262L42.7756 93.9539Z" fill="#303F4E" stroke="white" stroke-width="0.891892" stroke-miterlimit="10"/>
<path d="M53.3653 45.3051C53.3653 45.3051 58.634 59.1307 58.9734 73.2931C59.3128 87.4555 57.9529 94.9593 57.9529 94.9593H51.0715C51.0715 94.9593 51.3266 82.8198 49.4564 77.4247C47.5862 72.0297 44.5294 59.8042 44.5294 59.8042L39.9417 45.4723L53.3653 45.3027V45.3051Z" fill="#F3F8EA" stroke="#303F4E" stroke-width="1.5" stroke-miterlimit="10"/>
<path d="M46.0577 49.185C46.0577 49.185 49.372 58.2891 48.7775 73.0437C48.183 87.7983 43.8504 95.4694 43.8504 95.4694H36.543C36.543 95.4694 38.3265 84.8465 37.4769 69.2511C36.6272 53.6558 32.6341 48.7646 32.6341 48.7646L46.0577 49.185Z" fill="#F3F8EA" stroke="#303F4E" stroke-width="1.5" stroke-miterlimit="10"/>
<path d="M47.0755 21.2793C47.0755 21.2793 50.5163 21.8413 52.2998 23.8642C54.0834 25.8871 52.6814 25.9289 54.9752 27.5314C57.269 29.1339 65.171 26.3376 65.171 26.3376L65.9364 32.3226C65.9364 32.3226 57.489 35.1723 54.9752 36.0316C52.4614 36.8909 50.8978 36.791 50.8978 36.791L47.0755 21.2793Z" fill="#F3F8EA" stroke="#303F4E" stroke-width="1.5" stroke-miterlimit="10"/>
<path d="M31.4759 49.7925H55.9964C55.9964 49.7925 55.8747 40.2681 53.7096 31.6425C51.5445 23.0168 46.3342 21.1124 46.3342 21.1124C46.3342 21.1124 37.5217 17.6496 32.6439 25.0583C31.1248 27.815 31.4759 35.3305 31.4759 35.3305V49.7925Z" fill="#303F4E" stroke="#303F4E" stroke-width="0.891892" stroke-miterlimit="10"/>
<path d="M39.3377 21.0199C39.3377 21.0199 39.3868 20.3463 38.6823 19.1433C37.9801 17.9403 35.6043 13.8272 35.6043 13.8272C35.6043 13.8272 34.0502 10.5874 35.0332 8.37172C36.0163 6.15609 36.9128 3.94278 41.5917 3.67802C46.2706 3.41326 47.8693 5.89133 48.2578 7.69356C48.6464 9.49579 49.7839 10.6036 50.0999 10.9636C50.4159 11.3236 50.5119 12.0505 49.7839 12.3362C49.056 12.6218 49.8799 15.5574 49.8799 15.5574L46.0553 19.7913L45.957 21.4379C45.957 21.4379 45.8844 22.922 46.6826 23.7255C47.4807 24.5291 47.675 26.6936 45.7487 26.4893C43.8223 26.2849 40.0516 23.9833 40.0516 23.9833C40.0516 23.9833 38.6706 22.483 39.3353 21.0152V21.0199H39.3377Z" fill="#A8B3BB"/>
<path d="M35.0962 42.5244C35.0962 42.5244 37.7575 43.5068 37.6732 47.246C37.5889 50.9828 34.1342 50.8714 33.4811 50.7297C31.7467 50.3558 31.838 49.3803 32.0931 48.6511C32.3483 47.9195 33.9329 47.9497 33.5654 47.527C33.1979 47.1066 32.9709 47.6385 32.2336 47.2739C31.4963 46.9092 32.9124 44.6611 32.9124 44.6611L32.6291 43.3675L35.0938 42.5244H35.0962Z" fill="#A8B3BB"/>
<path d="M37.6025 22.2198C40.4066 24.5376 40.7039 27.6846 39.0046 30.3833C37.3053 33.082 33.8645 32.9682 33.1834 35.3301C32.5046 37.6897 36.0296 42.3556 36.0296 42.3556L32.1207 45.391C32.1207 45.391 26.5992 39.3201 25.6629 36.8769C24.729 34.4313 24.729 32.4921 26.0023 30.3856C27.2756 28.2791 34.7961 19.9043 37.6002 22.2221L37.6025 22.2198Z" fill="#F3F8EA" stroke="#303F4E" stroke-width="1.5" stroke-miterlimit="10"/>
<path d="M39.1922 20.7305C39.1922 20.7305 38.1741 20.3937 37.7855 21.2832C37.397 22.1727 37.0342 28.6431 46.9 31.1189C49.1774 30.3246 50.3081 26.1421 49.3624 23.8823C48.4168 21.6225 46.0526 21.0417 46.0526 21.0417C46.0526 21.0417 45.5915 22.34 46.3686 23.3015C47.1434 24.263 48.0164 25.826 46.3195 26.4043C44.6225 26.9826 39.7259 24.5045 39.3397 22.9903C38.9512 21.476 39.3397 20.763 39.1946 20.7305H39.1922Z" fill="#F3F8EA" stroke="#303F4E" stroke-width="1.5" stroke-miterlimit="10"/>
<path d="M47.7473 30.9526C47.7473 30.9526 48.3488 27.2785 46.4974 26.3379C45.203 27.7058 47.1691 31.6261 47.1691 31.6261L47.7473 30.9526Z" fill="#303F4E"/>
<path d="M50.5352 6.13194L34.6844 8.36847C34.6844 8.36847 32.8189 8.58446 34.4176 5.60241C36.0162 2.62037 40.9128 2.52515 45.0815 3.70264C49.2502 4.88013 51.118 5.31443 50.5352 6.13194Z" fill="#F3F8EA" stroke="#303F4E" stroke-width="1.78378" stroke-miterlimit="10"/>
<path d="M35.033 4.75195H48.5479" stroke="#303F4E" stroke-miterlimit="10"/>
<path d="M46.7693 6.25195H34.1018" stroke="#303F4E" stroke-miterlimit="10"/>
<path d="M39.976 8.8597C39.976 8.8597 40.0883 10.8802 40.526 11.4562C39.0725 10.1905 39.4119 10.158 38.279 10.9267C37.1485 11.6954 38.1667 14.1503 40.526 13.716C40.0415 14.6612 40.0579 14.8052 40.0579 14.8052C40.0579 14.8052 40.2358 17.562 43.6765 17.2902C47.1173 17.0185 47.4566 16.9698 47.9739 16.0245C47.4566 16.1197 47.555 14.8702 48.4421 13.9552C49.3315 13.0401 49.7177 13.0099 49.816 13.2817C49.9143 13.5534 50.0103 14.2594 50.1062 14.6775C50.2022 15.0955 50.6235 17.2438 49.589 18.2541C48.5544 19.2643 46.9979 20.7879 44.044 21.0271C41.0901 21.2686 39.0046 20.9319 38.4709 15.5438C34.0425 15.142 34.012 12.4502 34.101 11.1822C34.1899 9.91642 34.6908 8.92241 36.259 9.08266C37.8273 9.24291 38.7144 8.88989 38.9906 8.85738C39.2644 8.82486 39.5734 8.3116 39.976 8.85738V8.8597Z" fill="white"/>
</svg>
